<svg xmlns="http://www.w3.org/2000/svg" viewBox="0 0 321.39 53.43"><defs><style>.cls-1,.cls-4,.cls-6,.cls-7{fill:none;}.cls-1,.cls-2,.cls-3,.cls-6,.cls-7{stroke:#275264;stroke-miterlimit:10;}.cls-1{stroke-width:0.78px;}.cls-2,.cls-3,.cls-5{fill:#275264;}.cls-2{stroke-width:0.39px;}.cls-3{stroke-width:1.17px;}.cls-6{stroke-width:0.78px;}.cls-7{stroke-width:0.2px;}</style></defs><g id="Layer_2" data-name="Layer 2"><g id="Layer_1-2" data-name="Layer 1"><line class="cls-1" x1="37.76" y1="18.7" x2="37.8" y2="28.63"/><line class="cls-1" x1="56.29" y1="7.33" x2="40.69" y2="29.38"/><line class="cls-1" x1="24.63" y1="33.27" x2="32.81" y2="33.39"/><circle class="cls-2" cx="19.9" cy="22.22" r="2.96"/><circle class="cls-2" cx="20.85" cy="33.17" r="2.96"/><line class="cls-3" x1="19.9" y1="22.22" x2="20.98" y2="34.85"/><path class="cls-4" d="M37.8,28.63a5,5,0,1,0,4.52,2.79A5,5,0,0,0,37.8,28.63Zm3.33,7.8a4.3,4.3,0,0,1-.62.58,4.2,4.2,0,0,1-.74.46h0a4,4,0,0,1-.86.31l-.29,0a4.17,4.17,0,0,1-.59.08h-.08c-.21,0-.43,0-.64,0l-.12,0a4.15,4.15,0,0,1-.61-.14l-.21-.08a3.87,3.87,0,0,1-.55-.25l-.13-.06a4.19,4.19,0,0,1-.6-.44l-.14-.12a5.36,5.36,0,0,1-.4-.43l-.14-.18a3.66,3.66,0,0,1-.41-.66,4.34,4.34,0,0,1,2-5.79,6,6,0,0,1,.87-.31l.29,0a4.12,4.12,0,0,1,.59-.07h.08a3.39,3.39,0,0,1,.64,0l.13,0q.3.06.6.15l.21.07a5.45,5.45,0,0,1,.55.25l.13.07a4.12,4.12,0,0,1,.6.43l.14.13a4.07,4.07,0,0,1,.4.43,2.09,2.09,0,0,1,.14.17,4.14,4.14,0,0,1,.41.67A4.31,4.31,0,0,1,41.13,36.43Z"/><path class="cls-5" d="M42.89,31.14A5.62,5.62,0,0,0,37.79,28h0a5.49,5.49,0,0,0-2.35.56,5.57,5.57,0,1,0,7.45,2.57ZM40,38a4.95,4.95,0,1,1-2.24-9.4A5,5,0,0,1,40,38Z"/><path class="cls-5" d="M37.81,29.26h-.08a4.29,4.29,0,0,1,.72,0A3.39,3.39,0,0,0,37.81,29.26Z"/><path class="cls-5" d="M37.94,37.91H38a4.34,4.34,0,0,1-.72,0C37.51,37.89,37.73,37.91,37.94,37.91Z"/><path class="cls-5" d="M39.76,37.47h0a4.2,4.2,0,0,0,.74-.46,4.2,4.2,0,0,1-.74.46Z"/><path class="cls-5" d="M38,37.7a3.86,3.86,0,0,1-.69,0l-.11,0a3.77,3.77,0,0,1-.58-.14l-.2-.07a5.05,5.05,0,0,1-.53-.24l-.06,0-.06,0a5.15,5.15,0,0,1-.58-.41l-.07-.08-.06,0a3.76,3.76,0,0,1-.38-.41l0,0-.1-.13a3.89,3.89,0,0,1-.4-.64,4.12,4.12,0,0,1,1.91-5.52,4.76,4.76,0,0,1,.83-.3l.15,0,.13,0a3.7,3.7,0,0,1,.51-.07h.05a3.81,3.81,0,0,1,.69,0l.11,0a5.45,5.45,0,0,1,.58.14l.2.07a5.05,5.05,0,0,1,.53.24l.06,0s0,0,.06,0a3.62,3.62,0,0,1,.58.41l.07.07.06,0c.13.13.26.27.38.41a1.29,1.29,0,0,1,.13.17,4.31,4.31,0,0,1,.4.63A4.13,4.13,0,0,1,41,36.3a5.21,5.21,0,0,1-.59.56,4.78,4.78,0,0,1-.72.44,4.42,4.42,0,0,1-.82.29l-.16,0h-.13a3.76,3.76,0,0,1-.5.07Z"/><path class="cls-5" d="M83.6,3.66a3.72,3.72,0,0,1,3.33,2.07,3.81,3.81,0,0,1-1.62,5.1,3.66,3.66,0,0,1-1.69.41,3.73,3.73,0,0,1-3.33-2.07,3.81,3.81,0,0,1,1.62-5.1,3.66,3.66,0,0,1,1.69-.41m0-.36h0a4,4,0,0,0-1.85.46A4.17,4.17,0,0,0,80,9.33a4.06,4.06,0,0,0,3.65,2.26,4,4,0,0,0,1.85-.45,4.17,4.17,0,0,0,1.78-5.57A4.07,4.07,0,0,0,83.6,3.3Z"/><circle class="cls-2" cx="58.56" cy="4.13" r="2.96"/><circle class="cls-2" cx="47.53" cy="4.34" r="2.96"/><line class="cls-3" x1="58.56" y1="4.13" x2="45.88" y2="4.37"/><line class="cls-1" x1="17.68" y1="43.68" x2="33.15" y2="35.94"/><line class="cls-6" x1="42.17" y1="31.13" x2="80.16" y2="9.4"/><ellipse class="cls-2" cx="83.61" cy="7.45" rx="2.93" ry="2.98" transform="translate(-0.21 2.93) rotate(-2.01)"/><circle class="cls-2" cx="37.73" cy="14.76" r="2.96"/><circle class="cls-2" cx="14.21" cy="45.34" r="2.96"/><circle class="cls-2" cx="3.16" cy="39.57" r="2.96"/><line class="cls-3" x1="14.23" y1="45.41" x2="3.16" y2="39.57"/><line class="cls-1" x1="19.54" y1="9.27" x2="34.77" y2="29.7"/><circle class="cls-2" cx="17.25" cy="6.18" r="2.96"/><path class="cls-5" d="M37.73,11a3.77,3.77,0,1,1-1.71.41A3.76,3.76,0,0,1,37.73,11m0-.36h0a4,4,0,0,0-1.87.46,4.1,4.1,0,1,0,1.87-.46Z"/><path class="cls-5" d="M17.25,2.41a3.77,3.77,0,1,1-1.72.41,3.77,3.77,0,0,1,1.72-.41m0-.36h0a4.13,4.13,0,1,0,0,8.26,4.23,4.23,0,0,0,1.88-.45,4.13,4.13,0,0,0-1.88-7.81Z"/><path class="cls-5" d="M14.21,41.56A3.79,3.79,0,1,1,12.5,42a3.72,3.72,0,0,1,1.71-.42m0-.35h0a4.13,4.13,0,1,0,3.68,2.25,4.1,4.1,0,0,0-3.68-2.25Z"/><path class="cls-5" d="M20.85,29.39a3.78,3.78,0,1,1-2.07.62,3.77,3.77,0,0,1,2.07-.62m0-.35a4.13,4.13,0,1,0,2.26,7.58A4.13,4.13,0,0,0,24.3,30.9,4.11,4.11,0,0,0,20.85,29Z"/><path class="cls-5" d="M58.56.36a3.77,3.77,0,1,1-1.71.41A3.74,3.74,0,0,1,58.56.36m0-.36h0a4.09,4.09,0,0,0-1.87.45,4.13,4.13,0,0,0,1.88,7.81,4.22,4.22,0,0,0,1.87-.45A4.13,4.13,0,0,0,58.56,0Z"/><circle class="cls-4" cx="37.87" cy="33.58" r="5.06"/><path class="cls-7" d="M287.74,45.89c-5.95,0-10.78-3.23-10.78-7.22s4.83-7.21,10.78-7.21,10.77,3.23,10.77,7.21S293.69,45.89,287.74,45.89Zm1.65-11.61c-4.53,0-8.19,2.21-8.19,4.93s3.66,4.94,8.19,4.94,7.86-1.51,7.86-4.94S293.91,34.28,289.39,34.28Z"/><path class="cls-5" d="M292.37,42.64a7.38,7.38,0,0,1,1,.38,2,2,0,0,1,.53.38,1.47,1.47,0,0,1,.24.34l2.57,4.34h-4.16l-1.94-3.65a5,5,0,0,0-.64-.88c-.21-.17-.29-.23-.5-.23h-1v4.75h-3.68V35.94h7.38s3.37.06,3.37,3.26A3.44,3.44,0,0,1,292.37,42.64Zm-1.6-4.07h-2.22v2.06h2.22a1,1,0,0,0,1-1.05A1,1,0,0,0,290.77,38.57Z"/><path class="cls-5" d="M54.53,46.39h-.05v1.4h-3.7V30h3.7v7.57h.05a4.38,4.38,0,0,1,3.9-2.1A4.28,4.28,0,0,1,62,37.09a6.89,6.89,0,0,1,1.25,4.36,7.4,7.4,0,0,1-1.47,4.81,4.76,4.76,0,0,1-3.91,1.82A3.77,3.77,0,0,1,54.53,46.39Zm-.11-5.06v1.23a2.84,2.84,0,0,0,.67,1.92,2.18,2.18,0,0,0,1.71.76,2.24,2.24,0,0,0,2-1,4.67,4.67,0,0,0,.7-2.77,3.72,3.72,0,0,0-.64-2.32A2.14,2.14,0,0,0,57,38.33a2.35,2.35,0,0,0-1.84.83A3.17,3.17,0,0,0,54.42,41.33Z"/><path class="cls-5" d="M66.55,32.74a1.26,1.26,0,0,1-.88-.35,1.2,1.2,0,0,1-.36-.89,1.23,1.23,0,0,1,1.24-1.26,1.25,1.25,0,0,1,.9.36,1.26,1.26,0,0,1,0,1.78A1.25,1.25,0,0,1,66.55,32.74Zm.94,15H65.57v-12h1.92Z"/><path class="cls-5" d="M75.92,48.07a5.57,5.57,0,0,1-4.25-1.68,6.24,6.24,0,0,1-1.59-4.46,6.52,6.52,0,0,1,1.65-4.73,6,6,0,0,1,4.47-1.7,5.4,5.4,0,0,1,4.19,1.66,6.57,6.57,0,0,1,1.5,4.58,6.46,6.46,0,0,1-1.62,4.6A5.69,5.69,0,0,1,75.92,48.07Zm.14-11a3.65,3.65,0,0,0-2.93,1.26,5.18,5.18,0,0,0-1.08,3.48,4.87,4.87,0,0,0,1.09,3.36,3.71,3.71,0,0,0,2.92,1.23,3.49,3.49,0,0,0,2.86-1.21,5.22,5.22,0,0,0,1-3.43,5.32,5.32,0,0,0-1-3.47A3.5,3.5,0,0,0,76.06,37.12Z"/><path class="cls-5" d="M94.72,47.79H92.8v-2h0a4.84,4.84,0,0,1-7.74.71,6.59,6.59,0,0,1-1.36-4.39,7.17,7.17,0,0,1,1.5-4.77,4.94,4.94,0,0,1,4-1.8,3.85,3.85,0,0,1,3.6,2h0V30h1.92ZM92.8,42.36V40.59a3.43,3.43,0,0,0-1-2.46,3.23,3.23,0,0,0-2.44-1,3.31,3.31,0,0,0-2.76,1.29,5.67,5.67,0,0,0-1,3.56,5,5,0,0,0,1,3.28,3.15,3.15,0,0,0,2.59,1.2,3.3,3.3,0,0,0,2.61-1.16A4.31,4.31,0,0,0,92.8,42.36Z"/><path class="cls-5" d="M99.12,32.74a1.24,1.24,0,0,1-.88-.35,1.2,1.2,0,0,1-.36-.89,1.22,1.22,0,0,1,.36-.9,1.21,1.21,0,0,1,.88-.36,1.25,1.25,0,0,1,.9.36,1.26,1.26,0,0,1,0,1.78A1.25,1.25,0,0,1,99.12,32.74Zm.94,15H98.14v-12h1.92Z"/><path class="cls-5" d="M112.9,35.79l-4.78,12h-1.89l-4.54-12h2.11l3,8.71a7.46,7.46,0,0,1,.42,1.68h0a7.64,7.64,0,0,1,.38-1.63l3.18-8.76Z"/><path class="cls-5" d="M124.13,42.27h-8.47a4.52,4.52,0,0,0,1.07,3.09,3.72,3.72,0,0,0,2.84,1.09,5.93,5.93,0,0,0,3.73-1.34v1.81a7,7,0,0,1-4.19,1.15,5.07,5.07,0,0,1-4-1.64,6.68,6.68,0,0,1-1.46-4.6,6.55,6.55,0,0,1,1.59-4.56,5.1,5.1,0,0,1,4-1.77A4.49,4.49,0,0,1,122.84,37a6.33,6.33,0,0,1,1.29,4.23Zm-2-1.63a3.89,3.89,0,0,0-.8-2.59,2.74,2.74,0,0,0-2.2-.93,3.13,3.13,0,0,0-2.31,1,4.46,4.46,0,0,0-1.17,2.55Z"/><path class="cls-5" d="M132.81,37.73a2.32,2.32,0,0,0-1.45-.39,2.47,2.47,0,0,0-2.06,1.16,5.4,5.4,0,0,0-.82,3.17v6.12h-1.92v-12h1.92v2.47h0a4.29,4.29,0,0,1,1.26-2,2.86,2.86,0,0,1,1.88-.71,3.09,3.09,0,0,1,1.15.17Z"/><path class="cls-5" d="M133.69,47.35V45.29a5.72,5.72,0,0,0,3.46,1.16c1.69,0,2.53-.56,2.53-1.69a1.4,1.4,0,0,0-.22-.81,2.16,2.16,0,0,0-.58-.59,4.46,4.46,0,0,0-.87-.47l-1.07-.42c-.53-.22-1-.43-1.4-.64a4.45,4.45,0,0,1-1-.73,2.79,2.79,0,0,1-.61-.92,3.2,3.2,0,0,1-.2-1.21,2.92,2.92,0,0,1,.38-1.49,3.45,3.45,0,0,1,1-1.09,4.92,4.92,0,0,1,1.47-.66,6.53,6.53,0,0,1,1.71-.23,6.87,6.87,0,0,1,2.79.54v2a5.42,5.42,0,0,0-3-.87,3.63,3.63,0,0,0-1,.12,2.42,2.42,0,0,0-.74.35,1.75,1.75,0,0,0-.49.53,1.47,1.47,0,0,0-.17.69,1.67,1.67,0,0,0,.17.78,1.79,1.79,0,0,0,.5.57,4,4,0,0,0,.8.44l1.07.44c.53.2,1,.41,1.43.62a4.89,4.89,0,0,1,1.07.73,2.82,2.82,0,0,1,.69.93,3.32,3.32,0,0,1-.15,2.8,3.31,3.31,0,0,1-1,1.09,4.79,4.79,0,0,1-1.51.65,7.52,7.52,0,0,1-1.8.21A6.79,6.79,0,0,1,133.69,47.35Z"/><path class="cls-5" d="M145.11,32.74a1.22,1.22,0,0,1-.88-.35,1.21,1.21,0,0,1-.37-.89,1.23,1.23,0,0,1,.37-.9,1.19,1.19,0,0,1,.88-.36,1.21,1.21,0,0,1,.89.36,1.26,1.26,0,0,1,0,1.78A1.21,1.21,0,0,1,145.11,32.74Zm.93,15h-1.92v-12H146Z"/><path class="cls-5" d="M155,47.67a3.69,3.69,0,0,1-1.79.37q-3.15,0-3.15-3.51v-7.1H148V35.79h2.07V32.86l1.92-.63v3.56h3v1.64h-3v6.76a2.82,2.82,0,0,0,.41,1.72,1.65,1.65,0,0,0,1.36.52A2.05,2.05,0,0,0,155,46Z"/><path class="cls-5" d="M166.66,35.79l-5.52,13.92q-1.48,3.72-4.15,3.72a4.4,4.4,0,0,1-1.25-.15V51.56a3.54,3.54,0,0,0,1.13.21A2.35,2.35,0,0,0,159.05,50l1-2.28-4.68-12h2.13L160.71,45c0,.12.12.42.24.91H161c0-.18.12-.48.24-.89l3.41-9.25Z"/><path class="cls-5" d="M185.69,47.79H182V46.13h-.05a4.14,4.14,0,0,1-3.71,1.95,4.57,4.57,0,0,1-3.63-1.59,6.6,6.6,0,0,1-1.37-4.43,7.13,7.13,0,0,1,1.52-4.77,4.9,4.9,0,0,1,4-1.8,3.37,3.37,0,0,1,3.23,1.67H182V30h3.7ZM182.06,42v-.9a2.88,2.88,0,0,0-.68-1.95,2.25,2.25,0,0,0-1.77-.77,2.22,2.22,0,0,0-1.92,1A4.46,4.46,0,0,0,177,42a3.94,3.94,0,0,0,.66,2.44,2.38,2.38,0,0,0,3.69,0A3.78,3.78,0,0,0,182.06,42Z"/><path class="cls-5" d="M197.31,47.79h-1.93V45.91h0a4,4,0,0,1-3.7,2.16,3.94,3.94,0,0,1-2.8-1,3.29,3.29,0,0,1-1-2.52q0-3.36,4-3.92l3.59-.5c0-2-.82-3.06-2.47-3.06A5.87,5.87,0,0,0,189,38.6v-2a7.43,7.43,0,0,1,4.07-1.13c2.82,0,4.24,1.5,4.24,4.48Zm-1.93-6.07-2.89.39a4.77,4.77,0,0,0-2,.67,1.9,1.9,0,0,0-.68,1.68,1.82,1.82,0,0,0,.63,1.43,2.43,2.43,0,0,0,1.67.56,3.08,3.08,0,0,0,2.36-1,3.6,3.6,0,0,0,.93-2.54Z"/><path class="cls-5" d="M206,47.67a3.69,3.69,0,0,1-1.79.37q-3.15,0-3.15-3.51v-7.1H199V35.79h2.06V32.86l1.92-.63v3.56h3v1.64h-3v6.76a2.82,2.82,0,0,0,.41,1.72,1.65,1.65,0,0,0,1.36.52A2.05,2.05,0,0,0,206,46Z"/><path class="cls-5" d="M216.69,47.79h-1.92V45.91h-.05A4,4,0,0,1,211,48.07a4,4,0,0,1-2.81-1,3.31,3.31,0,0,1-1-2.52q0-3.36,4-3.92l3.6-.5c0-2-.83-3.06-2.48-3.06a5.87,5.87,0,0,0-3.91,1.48v-2a7.44,7.44,0,0,1,4.08-1.13c2.82,0,4.23,1.5,4.23,4.48Zm-1.92-6.07-2.9.39a4.67,4.67,0,0,0-2,.67,1.88,1.88,0,0,0-.68,1.68,1.85,1.85,0,0,0,.62,1.43,2.44,2.44,0,0,0,1.67.56,3.1,3.1,0,0,0,2.37-1,3.6,3.6,0,0,0,.93-2.54Z"/><path class="cls-5" d="M235.63,47.79h-1.92v-1.9h-.05a4,4,0,0,1-3.7,2.18c-2.86,0-4.29-1.71-4.29-5.11V35.79h1.91v6.86q0,3.8,2.9,3.8a3,3,0,0,0,2.32-1,4,4,0,0,0,.91-2.71V35.79h1.92Z"/><path class="cls-5" d="M249,47.79h-1.92V40.94c0-2.54-.93-3.82-2.79-3.82a3,3,0,0,0-2.39,1.09,4,4,0,0,0-.94,2.73v6.85H239v-12H241v2H241a4.31,4.31,0,0,1,3.93-2.28,3.65,3.65,0,0,1,3,1.28A5.61,5.61,0,0,1,249,40.45Z"/><path class="cls-5" d="M253.11,32.74a1.26,1.26,0,0,1-.88-.35,1.2,1.2,0,0,1-.36-.89,1.23,1.23,0,0,1,1.24-1.26,1.25,1.25,0,0,1,.9.36,1.26,1.26,0,0,1,0,1.78A1.25,1.25,0,0,1,253.11,32.74Zm.94,15h-1.92v-12h1.92Z"/><path class="cls-5" d="M268.5,35.79l-4.46,12h-4.22l-4.26-12h4l2.09,7.39a11.32,11.32,0,0,1,.41,2.13h.05a12.08,12.08,0,0,1,.43-2.06l2.13-7.46Z"/><path class="cls-5" d="M280.38,42.84h-7.82c.12,1.74,1.22,2.61,3.29,2.61a6.47,6.47,0,0,0,3.48-.93v2.67a9.18,9.18,0,0,1-4.32.89A5.58,5.58,0,0,1,268.89,42a6.43,6.43,0,0,1,1.73-4.73,5.77,5.77,0,0,1,4.27-1.75A5.24,5.24,0,0,1,279,37.05a6,6,0,0,1,1.43,4.23ZM277,40.57c0-1.72-.69-2.58-2.09-2.58a2,2,0,0,0-1.54.74,3.4,3.4,0,0,0-.79,1.84Z"/><path class="cls-5" d="M299.74,47.47v-3a7.76,7.76,0,0,0,1.83.82,6,6,0,0,0,1.71.27,3.7,3.7,0,0,0,1.56-.27.86.86,0,0,0,.56-.82.76.76,0,0,0-.25-.59,2.84,2.84,0,0,0-.67-.41,7.47,7.47,0,0,0-.88-.31c-.32-.1-.63-.2-.93-.32a9.28,9.28,0,0,1-1.26-.58,3.91,3.91,0,0,1-.91-.72,2.75,2.75,0,0,1-.56-.95,3.74,3.74,0,0,1-.2-1.28,3.29,3.29,0,0,1,.44-1.73,3.63,3.63,0,0,1,1.18-1.19,5.1,5.1,0,0,1,1.67-.68,9,9,0,0,1,2-.22,9.92,9.92,0,0,1,1.62.13,12.62,12.62,0,0,1,1.62.35v2.86a5.7,5.7,0,0,0-1.51-.61,6.17,6.17,0,0,0-1.57-.21,3,3,0,0,0-.69.07,2.38,2.38,0,0,0-.57.18,1.1,1.1,0,0,0-.38.32.7.7,0,0,0-.14.44.79.79,0,0,0,.21.56,1.84,1.84,0,0,0,.55.41,5.86,5.86,0,0,0,.75.3l.83.28a11.27,11.27,0,0,1,1.34.56,4.3,4.3,0,0,1,1,.71,2.93,2.93,0,0,1,.66,1,3.79,3.79,0,0,1-.24,3.13,3.8,3.8,0,0,1-1.23,1.23,5.36,5.36,0,0,1-1.77.69,9.47,9.47,0,0,1-2.08.22A10.67,10.67,0,0,1,299.74,47.47Z"/><path class="cls-5" d="M321.39,42.84h-7.83c.13,1.74,1.22,2.61,3.29,2.61a6.48,6.48,0,0,0,3.49-.93v2.67a9.23,9.23,0,0,1-4.33.89A5.59,5.59,0,0,1,309.89,42a6.4,6.4,0,0,1,1.74-4.73,5.75,5.75,0,0,1,4.26-1.75A5.23,5.23,0,0,1,320,37.05a6,6,0,0,1,1.44,4.23ZM318,40.57c0-1.72-.7-2.58-2.09-2.58a2,2,0,0,0-1.54.74,3.32,3.32,0,0,0-.79,1.84Z"/></g></g></svg>