<svg xmlns="http://www.w3.org/2000/svg" viewBox="0 0 320.17 55.37"><defs><style>.cls-1{fill:#fff;stroke-width:0.2px;}.cls-1,.cls-8,.cls-9{stroke:#265b6d;}.cls-1,.cls-13,.cls-14,.cls-17,.cls-7,.cls-8,.cls-9{stroke-miterlimit:10;}.cls-2,.cls-3{fill:#265b6d;}.cls-3{font-size:24px;font-family:Ebrima-Bold, Ebrima;}.cls-4{font-weight:700;}.cls-5{font-family:Ebrima, Ebrima;}.cls-6{fill:#4bae4d;}.cls-13,.cls-14,.cls-17,.cls-7,.cls-8,.cls-9{fill:none;}.cls-7{stroke:#4bae4d;}.cls-13,.cls-17,.cls-7{stroke-width:1.14px;}.cls-8{stroke-width:0.76px;}.cls-9{stroke-width:0.76px;}.cls-10{fill:#6f3f98;}.cls-11{fill:#ef4538;}.cls-12{fill:#785549;}.cls-13{stroke:#785549;}.cls-14{stroke:#f1f2f2;stroke-width:1.22px;}.cls-15{fill:#37a5dd;}.cls-16{fill:#939598;}.cls-17{stroke:#939598;}</style></defs><title>bdverse_logo_long_1</title><g id="Layer_2" data-name="Layer 2"><g id="Layer_1-2" data-name="Layer 1"><path class="cls-1" d="M285.88,45.82c-6,0-10.78-3.23-10.78-7.22s4.83-7.22,10.78-7.22,10.78,3.23,10.78,7.22S291.83,45.82,285.88,45.82Zm1.65-11.61c-4.52,0-8.19,2.21-8.19,4.93s3.67,4.93,8.19,4.93,7.86-1.51,7.86-4.93S292.05,34.2,287.53,34.2Z"/><path class="cls-2" d="M290.51,42.56a8.12,8.12,0,0,1,1,.39,2,2,0,0,1,.52.37,1.41,1.41,0,0,1,.24.34L294.88,48h-4.15l-1.94-3.65a4.7,4.7,0,0,0-.64-.88.68.68,0,0,0-.49-.22h-1V48H283V35.86h7.38s3.36.06,3.36,3.26A3.43,3.43,0,0,1,290.51,42.56Zm-1.6-4.06h-2.23v2.06h2.23a1,1,0,0,0,1-1A1,1,0,0,0,288.91,38.5Z"/><text class="cls-3" transform="translate(47.36 47.71)"><tspan class="cls-4">b</tspan><tspan class="cls-5" x="14.4" y="0">iodiversity </tspan><tspan class="cls-4" x="123.17" y="0">d</tspan><tspan class="cls-5" x="137.55" y="0">ata uni</tspan><tspan class="cls-4" x="206.3" y="0" xml:space="preserve">ve   se</tspan></text><path class="cls-2" d="M82,3.94A3.65,3.65,0,0,1,85.27,6a3.73,3.73,0,0,1-1.66,5,3.59,3.59,0,0,1-1.61.38,3.65,3.65,0,0,1-3.28-2.07,3.73,3.73,0,0,1,1.66-5A3.59,3.59,0,0,1,82,3.94m0-.35h0A3.91,3.91,0,0,0,80.23,4a4.08,4.08,0,0,0-1.82,5.42A4,4,0,0,0,82,11.7a3.91,3.91,0,0,0,1.76-.42,4.08,4.08,0,0,0,1.82-5.42A4,4,0,0,0,82,3.59Z"/><circle class="cls-6" cx="57.58" cy="4.04" r="2.9" transform="matrix(1, 0, 0, 1, -0.02, 0.25)"/><circle class="cls-6" cx="46.79" cy="4.08" r="2.9" transform="translate(-0.02 0.2) rotate(-0.25)"/><line class="cls-7" x1="57.58" y1="4.04" x2="45.18" y2="4.09"/><line class="cls-8" x1="17.04" y1="42.12" x2="36.93" y2="32.54"/><line class="cls-9" x1="36.93" y1="32.54" x2="78.62" y2="9.5"/><line class="cls-8" x1="37.03" y1="17.98" x2="36.93" y2="32.77"/><path class="cls-10" d="M84.52,6.28a2.93,2.93,0,0,1-1,4,2.85,2.85,0,0,1-3.92-1.05,2.93,2.93,0,0,1,1-4A2.85,2.85,0,0,1,84.52,6.28Z"/><circle class="cls-11" cx="37.06" cy="14.13" r="2.9" transform="translate(-2.5 17.06) rotate(-25.11)"/><circle class="cls-12" cx="13.64" cy="43.76" r="2.9" transform="translate(-5.61 2.16) rotate(-7.52)"/><circle class="cls-12" cx="2.9" cy="37.89" r="2.9" transform="translate(-4.93 0.71) rotate(-7.52)"/><line class="cls-13" x1="13.64" y1="43.76" x2="2.9" y2="37.89"/><line class="cls-8" x1="19.35" y1="8.5" x2="36.55" y2="32.41"/><line class="cls-8" x1="55.31" y1="7.14" x2="36.89" y2="32.24"/><line class="cls-8" x1="23.98" y1="32.04" x2="36.55" y2="32.41"/><path class="cls-2" d="M36.93,37.38a4.86,4.86,0,0,1-4.38-2.79,4.84,4.84,0,0,1,4.38-6.89A4.84,4.84,0,0,1,39,36.92,4.8,4.8,0,0,1,36.93,37.38Z"/><path class="cls-2" d="M36.92,28.31a4.23,4.23,0,1,1-1.79.4,4.23,4.23,0,0,1,1.79-.4m0-1.22h0A5.45,5.45,0,0,0,32,34.85,5.47,5.47,0,0,0,36.93,38a5.45,5.45,0,0,0,4.93-7.76,5.47,5.47,0,0,0-4.94-3.14Z"/><circle class="cls-14" cx="36.93" cy="32.54" r="4.23" transform="translate(-10.32 18.75) rotate(-25.11)"/><circle class="cls-15" cx="17.16" cy="5.45" r="2.9" transform="translate(-0.69 7.8) rotate(-25.11)"/><circle class="cls-16" cx="19.51" cy="21.16" r="2.9" transform="translate(-1.45 1.44) rotate(-4.07)"/><circle class="cls-16" cx="20.28" cy="31.93" r="2.9" transform="translate(-2.21 1.52) rotate(-4.07)"/><line class="cls-17" x1="19.51" y1="21.16" x2="20.39" y2="33.53"/><path class="cls-2" d="M37.05,10.47a3.69,3.69,0,1,1-1.63.38,3.69,3.69,0,0,1,1.63-.38m0-.35h0a4,4,0,1,0,1.78,7.66,4,4,0,0,0-1.78-7.66Z"/><path class="cls-2" d="M17.15,1.76a3.69,3.69,0,1,1-1.63.38,3.69,3.69,0,0,1,1.63-.38m0-.35h0a4,4,0,0,0-3.62,5.82,4,4,0,1,0,3.62-5.82Z"/><path class="cls-2" d="M13.6,40a3.69,3.69,0,1,1-1.63.38A3.69,3.69,0,0,1,13.6,40m0-.35h0a4,4,0,1,0,3.62,2.26,4,4,0,0,0-3.62-2.26Z"/><path class="cls-2" d="M20.3,28.19a3.69,3.69,0,1,1-2,.57,3.69,3.69,0,0,1,2-.57m0-.35a4,4,0,1,0,3.41,1.88,4,4,0,0,0-3.41-1.88Z"/><path class="cls-2" d="M57.58.35A3.69,3.69,0,1,1,56,.73,3.69,3.69,0,0,1,57.58.35m0-.35h0a4,4,0,0,0-3.82,2.74A4,4,0,1,0,57.58,0Z"/></g></g></svg>